# xmcd
#
# Track frame offsets: 
#        150
#        17370
#        31727
#        46960
#        58576
#        71439
#        81733
#        92649
#        109514
#        117452
#        138927
#        150866
#
# Disc length: 2097 seconds
#
# Revision: 0
# Processed by: cddbd v1.5.2PL0 Copyright (c) Steve Scherf et al.
# Submitted via: ExactAudioCopy v0.99pb5
#
DISCID=8d082f0c
DTITLE=Roy Bookbinder and Fats Kaplin - Git-Fiddle Shuffle
DYEAR=1975
DGENRE=Blues
TTITLE0=Let's Get Drunk Again
TTITLE1='Lectric Chair Blues
TTITLE2=I Got Mine
TTITLE3=Hey, Hey Daddy
TTITLE4=Never Cried 'Til My Baby Got On The Train
TTITLE5=Sweets Petunia
TTITLE6=Take Me To The Land Of Jazz
TTITLE7=He's In The Jailhouse Now
TTITLE8=Franklin Blues
TTITLE9=Bad Dream Blues
TTITLE10=Black Dog Blues
TTITLE11=Git-Fiddle Shuffle
EXTD=
EXTT0=
EXTT1=
EXTT2=
EXTT3=
EXTT4=
EXTT5=
EXTT6=
EXTT7=
EXTT8=
EXTT9=
EXTT10=
EXTT11=
PLAYORDER=
